<mxfile host="app.diagrams.net" modified="2023-06-11T08:09:16.255Z" agent="Mozilla/5.0 (Macintosh; Intel Mac OS X 10_15_7) AppleWebKit/537.36 (KHTML, like Gecko) Chrome/113.0.0.0 Safari/537.36" etag="AyMM2GlVk07dKq7VATFX" version="21.3.6" type="github">
  <diagram name="第 1 页" id="jmLGyRtJv-uPEz8_w5s_">
    <mxGraphModel dx="1024" dy="551" grid="1" gridSize="10" guides="1" tooltips="1" connect="1" arrows="1" fold="1" page="1" pageScale="1" pageWidth="827" pageHeight="1169" math="0" shadow="0">
      <root>
        <mxCell id="0" />
        <mxCell id="1" parent="0" />
        <mxCell id="Bd8WudOikVSf8Hs_fxaL-3" value="" style="rounded=0;whiteSpace=wrap;html=1;fillColor=#ffe6cc;strokeColor=#d79b00;" vertex="1" parent="1">
          <mxGeometry x="122" y="160" width="90" height="50" as="geometry" />
        </mxCell>
        <mxCell id="Bd8WudOikVSf8Hs_fxaL-17" value="" style="rounded=0;whiteSpace=wrap;html=1;fillColor=#ffe6cc;strokeColor=#d79b00;" vertex="1" parent="1">
          <mxGeometry x="389" y="160" width="90" height="50" as="geometry" />
        </mxCell>
        <mxCell id="Bd8WudOikVSf8Hs_fxaL-30" value="" style="rounded=0;whiteSpace=wrap;html=1;fillColor=#dae8fc;strokeColor=#6c8ebf;dashed=1;" vertex="1" parent="1">
          <mxGeometry x="389" y="110" width="151" height="50" as="geometry" />
        </mxCell>
        <mxCell id="Bd8WudOikVSf8Hs_fxaL-1" value="" style="endArrow=classic;html=1;rounded=0;" edge="1" parent="1">
          <mxGeometry width="50" height="50" relative="1" as="geometry">
            <mxPoint x="122" y="160" as="sourcePoint" />
            <mxPoint x="282" y="160" as="targetPoint" />
          </mxGeometry>
        </mxCell>
        <mxCell id="Bd8WudOikVSf8Hs_fxaL-2" value="" style="endArrow=classic;html=1;rounded=0;" edge="1" parent="1">
          <mxGeometry width="50" height="50" relative="1" as="geometry">
            <mxPoint x="122" y="160" as="sourcePoint" />
            <mxPoint x="122" y="280" as="targetPoint" />
          </mxGeometry>
        </mxCell>
        <mxCell id="Bd8WudOikVSf8Hs_fxaL-4" value="0" style="text;html=1;align=center;verticalAlign=middle;resizable=0;points=[];autosize=1;strokeColor=none;fillColor=none;" vertex="1" parent="1">
          <mxGeometry x="102" y="140" width="30" height="30" as="geometry" />
        </mxCell>
        <mxCell id="Bd8WudOikVSf8Hs_fxaL-5" value="&lt;font style=&quot;font-size: 14px;&quot;&gt;x&lt;/font&gt;" style="text;html=1;align=center;verticalAlign=middle;resizable=0;points=[];autosize=1;strokeColor=none;fillColor=none;" vertex="1" parent="1">
          <mxGeometry x="272" y="130" width="30" height="30" as="geometry" />
        </mxCell>
        <mxCell id="Bd8WudOikVSf8Hs_fxaL-6" value="&lt;font style=&quot;font-size: 14px;&quot;&gt;y&lt;/font&gt;" style="text;html=1;align=center;verticalAlign=middle;resizable=0;points=[];autosize=1;strokeColor=none;fillColor=none;" vertex="1" parent="1">
          <mxGeometry x="92" y="260" width="30" height="30" as="geometry" />
        </mxCell>
        <mxCell id="Bd8WudOikVSf8Hs_fxaL-13" value="&lt;font style=&quot;font-size: 5px;&quot;&gt;bottom&lt;/font&gt;" style="text;html=1;align=center;verticalAlign=middle;resizable=0;points=[];autosize=1;strokeColor=none;fillColor=none;" vertex="1" parent="1">
          <mxGeometry x="62" y="200" width="60" height="30" as="geometry" />
        </mxCell>
        <mxCell id="Bd8WudOikVSf8Hs_fxaL-14" value="&lt;font style=&quot;font-size: 5px;&quot;&gt;right&lt;/font&gt;" style="text;html=1;align=center;verticalAlign=middle;resizable=0;points=[];autosize=1;strokeColor=none;fillColor=none;" vertex="1" parent="1">
          <mxGeometry x="192" y="130" width="50" height="30" as="geometry" />
        </mxCell>
        <mxCell id="Bd8WudOikVSf8Hs_fxaL-15" value="" style="endArrow=classic;html=1;rounded=0;" edge="1" parent="1" source="Bd8WudOikVSf8Hs_fxaL-27">
          <mxGeometry width="50" height="50" relative="1" as="geometry">
            <mxPoint x="389" y="160" as="sourcePoint" />
            <mxPoint x="549" y="160" as="targetPoint" />
          </mxGeometry>
        </mxCell>
        <mxCell id="Bd8WudOikVSf8Hs_fxaL-16" value="" style="endArrow=classic;html=1;rounded=0;" edge="1" parent="1">
          <mxGeometry width="50" height="50" relative="1" as="geometry">
            <mxPoint x="389" y="80" as="sourcePoint" />
            <mxPoint x="389" y="280" as="targetPoint" />
          </mxGeometry>
        </mxCell>
        <mxCell id="Bd8WudOikVSf8Hs_fxaL-19" value="&lt;font style=&quot;font-size: 14px;&quot;&gt;baseline&lt;/font&gt;" style="text;html=1;align=center;verticalAlign=middle;resizable=0;points=[];autosize=1;strokeColor=none;fillColor=none;" vertex="1" parent="1">
          <mxGeometry x="538" y="145" width="80" height="30" as="geometry" />
        </mxCell>
        <mxCell id="Bd8WudOikVSf8Hs_fxaL-20" value="&lt;font style=&quot;font-size: 14px;&quot;&gt;y&lt;/font&gt;" style="text;html=1;align=center;verticalAlign=middle;resizable=0;points=[];autosize=1;strokeColor=none;fillColor=none;" vertex="1" parent="1">
          <mxGeometry x="359" y="260" width="30" height="30" as="geometry" />
        </mxCell>
        <mxCell id="Bd8WudOikVSf8Hs_fxaL-23" value="&lt;font style=&quot;font-size: 5px;&quot;&gt;fm.top&lt;/font&gt;" style="text;html=1;align=center;verticalAlign=middle;resizable=0;points=[];autosize=1;strokeColor=none;fillColor=none;" vertex="1" parent="1">
          <mxGeometry x="339" y="95" width="60" height="30" as="geometry" />
        </mxCell>
        <mxCell id="Bd8WudOikVSf8Hs_fxaL-24" value="" style="shape=waypoint;sketch=0;size=6;pointerEvents=1;points=[];fillColor=none;resizable=0;rotatable=0;perimeter=centerPerimeter;snapToPoint=1;strokeWidth=0;" vertex="1" parent="1">
          <mxGeometry x="379" y="100" width="20" height="20" as="geometry" />
        </mxCell>
        <mxCell id="Bd8WudOikVSf8Hs_fxaL-26" value="" style="shape=waypoint;sketch=0;size=6;pointerEvents=1;points=[];fillColor=none;resizable=0;rotatable=0;perimeter=centerPerimeter;snapToPoint=1;strokeWidth=0;" vertex="1" parent="1">
          <mxGeometry x="379" y="200" width="20" height="20" as="geometry" />
        </mxCell>
        <mxCell id="Bd8WudOikVSf8Hs_fxaL-28" value="" style="endArrow=classic;html=1;rounded=0;" edge="1" parent="1" target="Bd8WudOikVSf8Hs_fxaL-27">
          <mxGeometry width="50" height="50" relative="1" as="geometry">
            <mxPoint x="389" y="160" as="sourcePoint" />
            <mxPoint x="549" y="160" as="targetPoint" />
          </mxGeometry>
        </mxCell>
        <mxCell id="Bd8WudOikVSf8Hs_fxaL-27" value="" style="shape=waypoint;sketch=0;size=6;pointerEvents=1;points=[];fillColor=none;resizable=0;rotatable=0;perimeter=centerPerimeter;snapToPoint=1;strokeWidth=0;" vertex="1" parent="1">
          <mxGeometry x="379" y="150" width="20" height="20" as="geometry" />
        </mxCell>
        <mxCell id="Bd8WudOikVSf8Hs_fxaL-31" value="&lt;font style=&quot;font-size: 5px;&quot;&gt;fm.bottom&lt;/font&gt;" style="text;html=1;align=center;verticalAlign=middle;resizable=0;points=[];autosize=1;strokeColor=none;fillColor=none;" vertex="1" parent="1">
          <mxGeometry x="319" y="145" width="80" height="30" as="geometry" />
        </mxCell>
      </root>
    </mxGraphModel>
  </diagram>
</mxfile>
